# Blender v3.2.2 OBJ File: ''
# www.blender.org
mtllib FPS_barrier_y.mtl
o 竖体_立方体.001
v -0.202973 -0.000000 1.623788
v -0.202973 4.261070 1.623788
v -0.202973 4.261071 -1.623787
v -0.202973 0.000000 -1.623788
v 0.202973 4.261071 -1.623787
v 0.202973 0.000000 -1.623788
v 0.202973 4.261070 1.623788
v 0.202973 -0.000000 1.623788
vt 0.500000 0.500000
vt 0.055622 0.500000
vt 0.055622 0.055622
vt 0.500000 0.055622
vt 0.055622 0.000075
vt 0.500000 0.000075
vt 0.500000 0.999925
vt 0.055622 0.999925
vt 0.055622 0.555547
vt 0.500000 0.555547
vt 0.555547 0.055622
vt 0.555547 0.500000
vt 0.000075 0.055622
vt 0.000075 0.500000
vn -1.0000 -0.0000 0.0000
vn 0.0000 0.0000 -1.0000
vn 1.0000 0.0000 0.0000
vn 0.0000 -0.0000 1.0000
vn 0.0000 -1.0000 -0.0000
vn 0.0000 1.0000 0.0000
usemtl Default_OBJ
s 1
f 1/1/1 2/2/1 3/3/1 4/4/1
f 4/4/2 3/3/2 5/5/2 6/6/2
f 6/7/3 5/8/3 7/9/3 8/10/3
f 8/10/4 7/9/4 2/2/4 1/1/4
f 4/4/5 6/11/5 8/12/5 1/1/5
f 5/13/6 3/3/6 2/2/6 7/14/6
